<?xml version="1.0" standalone="no"?>
<!DOCTYPE svg PUBLIC "-//W3C//DTD SVG 20010904//EN"
 "http://www.w3.org/TR/2001/REC-SVG-20010904/DTD/svg10.dtd">
<svg version="1.0" xmlns="http://www.w3.org/2000/svg"
 width="640.000000pt" height="640.000000pt" viewBox="0 0 640.000000 640.000000"
 preserveAspectRatio="xMidYMid meet">

<g transform="translate(0.000000,640.000000) scale(0.100000,-0.100000)"
fill="#000000" stroke="none">
<path d="M0 3200 l0 -3200 3200 0 3200 0 0 3200 0 3200 -3200 0 -3200 0 0
-3200z m3067 1519 c-6 -23 -2 -25 67 -34 33 -4 56 -14 71 -31 12 -13 28 -24
35 -24 6 0 54 -14 106 -32 93 -31 94 -32 94 -64 0 -44 -23 -65 -66 -61 -19 2
-40 9 -46 15 -30 30 -148 -5 -148 -43 0 -33 91 -66 129 -46 14 8 21 8 21 1 0
-5 7 -10 15 -10 27 0 16 -39 -15 -55 -22 -11 -44 -14 -79 -9 -79 10 -150 -16
-203 -75 -129 -143 -86 -375 85 -463 54 -28 74 -32 160 -36 89 -4 101 -2 151
22 99 48 183 159 221 290 17 58 18 194 2 241 -4 11 2 1 13 -23 26 -54 28 -181
4 -262 -23 -80 -79 -181 -127 -231 -107 -112 -240 -163 -453 -176 -220 -13
-444 178 -462 395 -5 56 -7 62 -12 35 -11 -52 7 -131 48 -215 26 -51 35 -78
26 -78 -17 0 -70 65 -92 112 -10 23 -22 36 -30 33 -20 -7 -63 97 -69 168 -3
34 -11 65 -17 69 -17 11 -12 138 7 186 9 23 28 60 42 82 14 22 25 47 25 55 0
9 24 40 53 70 55 55 204 136 277 150 19 4 42 13 50 20 27 23 75 44 99 45 19 0
22 -4 18 -21z m-1986 -1733 c24 -7 60 -21 81 -30 l36 -15 0 -89 c0 -49 -3 -94
-7 -101 -6 -10 -25 -1 -71 33 -34 25 -66 46 -71 46 -5 0 -9 16 -9 35 0 28 4
35 20 35 11 0 29 -6 40 -12 17 -11 22 -10 30 2 23 36 -5 64 -41 42 -10 -7 -30
-12 -44 -12 -22 0 -25 -4 -25 -35 0 -32 -2 -35 -30 -35 -28 0 -30 3 -30 35 0
31 -3 35 -25 35 -14 0 -34 5 -44 12 -24 15 -51 4 -51 -21 0 -22 29 -36 44 -21
5 5 20 10 33 10 18 0 23 -6 23 -25 0 -18 -5 -25 -20 -25 -34 0 -97 -38 -125
-74 -56 -73 -71 -204 -35 -306 13 -39 16 -58 8 -67 -12 -15 -48 -17 -48 -3 0
6 -25 10 -55 10 -51 0 -55 -2 -55 -24 0 -13 7 -27 16 -30 25 -10 82 -7 89 4 8
13 52 13 60 0 4 -7 12 -7 25 0 13 7 28 4 56 -10 22 -10 55 -23 74 -28 28 -8 9
-10 -87 -11 -85 -1 -123 2 -123 10 0 8 -21 10 -64 7 l-64 -4 -17 36 c-44 91
-36 116 28 85 20 -9 52 -15 73 -13 34 3 39 6 42 31 3 27 2 27 -52 27 -33 0
-56 -4 -56 -11 0 -6 -16 -9 -37 -7 -35 3 -38 6 -38 33 0 26 4 30 28 33 17 2
36 -3 47 -13 12 -11 32 -15 61 -13 40 3 44 6 47 31 3 27 2 27 -52 27 -31 0
-56 -4 -56 -10 0 -5 -19 -10 -41 -10 l-41 0 4 88 c7 144 71 258 180 317 29 16
78 35 108 42 65 15 196 9 261 -11z m2724 14 c33 -5 85 -19 117 -32 64 -25 68
-34 68 -142 0 -73 -11 -96 -34 -77 -12 10 -16 33 -16 92 l0 79 -28 0 c-15 0
-33 5 -39 11 -16 16 -43 4 -43 -20 0 -25 27 -34 52 -17 35 25 48 10 48 -55 0
-32 -2 -59 -5 -59 -3 0 -28 14 -56 32 -55 33 -121 46 -184 34 -39 -8 -110 -65
-120 -97 -4 -10 -11 -19 -16 -19 -12 0 -7 141 6 177 9 28 -17 42 -40 23 -14
-11 -14 -15 0 -36 21 -33 21 -174 0 -174 -11 0 -15 -12 -15 -50 0 -36 4 -52
15 -56 10 -4 15 -21 15 -54 0 -58 22 -122 55 -162 26 -31 32 -62 15 -73 -19
-12 -11 -45 10 -45 26 0 36 25 20 45 -18 22 -6 28 32 17 18 -6 45 -13 61 -16
19 -5 27 -13 27 -27 0 -18 4 -20 28 -15 15 4 39 10 55 13 22 4 27 11 27 33 0
38 36 61 83 53 39 -6 49 -19 40 -52 -3 -14 -13 -21 -29 -21 -22 0 -24 -4 -24
-50 l0 -49 -69 -21 c-88 -26 -208 -27 -289 -2 -71 23 -147 73 -166 111 -8 15
-22 33 -30 40 -53 44 -77 278 -40 396 18 58 18 59 22 25 2 -19 -1 -36 -7 -38
-18 -6 -14 -99 5 -106 38 -14 44 -7 44 49 0 30 -4 55 -10 55 -6 0 -10 28 -10
63 0 58 3 67 34 103 82 96 232 140 391 114z m822 -35 c104 -51 159 -123 188
-247 21 -90 22 -88 -35 -88 -27 0 -50 -4 -50 -10 0 -5 -25 -10 -55 -10 l-54 0
-6 38 c-23 136 -80 202 -175 202 -100 0 -159 -74 -176 -220 l-7 -60 -44 0
c-42 0 -44 -1 -41 -27 3 -26 7 -28 51 -31 59 -4 52 -22 -9 -22 -24 0 -44 -4
-44 -10 0 -14 -44 -12 -58 2 -10 10 -17 10 -31 1 -16 -10 -20 -9 -25 3 -10 26
-7 209 3 199 5 -6 11 -23 13 -40 4 -39 42 -48 52 -13 10 40 7 78 -9 84 -11 4
-15 21 -15 59 0 41 6 60 28 91 73 101 190 147 347 138 65 -3 93 -11 152 -39z
m-3115 -110 c-3 -110 -6 -135 -18 -135 -10 0 -14 -13 -14 -49 0 -28 5 -53 10
-56 15 -9 13 -270 -2 -296 -11 -17 -10 -22 5 -33 11 -9 17 -27 17 -55 l0 -41
-100 0 -100 0 0 400 0 400 103 0 102 0 -3 -135z m478 100 c0 -31 -3 -35 -25
-35 -14 0 -25 5 -25 10 0 6 -11 10 -24 10 -30 0 -42 -28 -21 -49 12 -13 19
-13 35 -3 11 6 29 12 40 12 19 0 20 -6 20 -89 0 -49 -4 -91 -9 -93 -15 -5 -17
-101 -3 -106 15 -5 17 -122 2 -122 -5 0 -10 -11 -10 -24 0 -14 5 -28 10 -31 6
-3 10 -15 10 -26 0 -17 -7 -19 -69 -19 -76 0 -90 9 -71 45 16 29 7 55 -19 55
-25 0 -35 -29 -17 -49 8 -9 16 -27 18 -41 3 -26 3 -26 126 -29 29 -1 32 -4 32
-31 l0 -30 -80 0 -79 0 -3 -57 c-3 -50 -6 -58 -23 -58 -19 0 -20 7 -22 169 -1
100 -7 174 -13 180 -15 15 -12 63 5 70 13 5 14 25 9 146 l-7 140 26 0 27 0 0
-90 c0 -75 -3 -90 -16 -90 -12 0 -14 -10 -12 -52 3 -51 4 -53 33 -53 29 0 30
2 33 49 2 37 -1 52 -12 58 -13 7 -16 28 -16 103 l0 94 -27 3 c-23 2 -29 8 -31
36 l-3 32 105 0 106 0 0 -35z m570 -35 l0 -70 -60 0 -60 0 2 -257 3 -258 33
-3 c25 -3 32 -8 33 -25 2 -35 -2 -61 -12 -73 -5 -6 -7 -19 -3 -28 6 -14 -11
-16 -160 -16 -104 0 -166 4 -166 10 0 11 4 11 123 11 75 0 77 1 77 25 0 13 5
33 12 43 15 24 4 51 -22 51 -23 0 -28 -38 -9 -57 7 -7 9 -19 6 -27 -5 -13 -23
-16 -87 -16 -44 0 -88 4 -98 9 -9 5 -26 13 -37 17 -19 6 -18 7 5 13 17 5 26
15 28 33 3 22 9 27 35 30 l32 3 1 87 c1 48 4 94 7 102 8 21 70 21 100 1 26
-17 51 -6 45 21 -3 14 -11 18 -28 16 -14 -2 -46 -6 -72 -9 l-48 -5 -1 134 c-1
73 -1 141 0 151 2 14 -7 17 -58 17 l-61 0 0 70 0 70 220 0 220 0 0 -70z m720
-5 l0 -75 -70 0 -70 0 0 30 c0 25 4 30 23 30 13 0 28 -5 35 -12 13 -13 42 6
42 29 0 19 -29 28 -43 14 -6 -6 -26 -11 -44 -11 -32 0 -33 -1 -33 -40 0 -38
-2 -40 -30 -40 -28 0 -30 2 -30 40 0 39 -1 40 -35 40 -19 0 -35 5 -35 10 0 16
-40 11 -47 -6 -8 -22 22 -51 39 -37 7 6 23 13 36 16 22 5 22 4 22 -89 0 -56
-4 -94 -10 -94 -5 0 -10 -22 -10 -49 0 -28 5 -53 10 -56 14 -9 12 -119 -2
-133 -7 -7 -20 -12 -30 -12 -16 0 -18 9 -18 70 0 40 4 70 10 70 6 0 10 25 10
55 0 54 0 55 -30 55 -29 0 -30 -1 -30 -49 0 -28 5 -53 10 -56 6 -3 10 -40 10
-81 l0 -74 28 0 c42 0 52 -17 52 -87 l0 -63 -100 0 -100 0 0 29 c0 31 14 49
25 31 10 -16 45 -12 52 6 7 18 -15 36 -34 29 -7 -3 -20 -8 -28 -11 -13 -5 -15
23 -15 220 l0 226 -120 0 -120 0 0 75 0 75 340 0 340 0 0 -75z m1697 31 c9 -4
21 -2 27 4 5 5 20 10 33 10 22 0 23 -3 23 -90 0 -53 -4 -90 -10 -90 -5 0 -10
-25 -10 -56 0 -54 0 -55 28 -52 25 3 27 7 30 56 2 31 -1 52 -7 52 -7 0 -11 37
-11 99 l0 100 -37 4 c-21 2 5 4 57 4 52 0 83 -2 68 -4 l-28 -4 0 -100 c0 -59
-4 -99 -10 -99 -5 0 -10 -25 -10 -55 0 -30 5 -55 10 -55 15 0 13 -273 -2 -288
-7 -7 -44 -12 -95 -12 l-83 0 1 313 c1 171 4 302 6 290 2 -12 11 -24 20 -27z
m791 -226 c0 -160 -3 -270 -9 -270 -5 0 -18 6 -29 12 -16 10 -23 10 -36 -3
-14 -15 -14 -18 2 -33 12 -12 20 -14 27 -7 6 6 19 11 28 11 15 0 17 -14 18
-120 l1 -121 -102 3 -103 3 -3 99 c-2 60 2 111 9 128 9 21 9 31 0 42 -12 15
-10 126 4 259 5 38 3 57 -4 57 -15 0 -14 149 2 183 12 26 14 27 104 27 l91 0
0 -270z m-529 148 c30 -67 41 -106 41 -140 0 -26 5 -50 10 -53 12 -7 14 -295
2 -295 -5 0 -19 23 -32 51 -20 42 -22 54 -12 70 9 14 9 25 2 39 -13 24 -13
127 0 135 6 3 10 28 10 56 0 48 -1 49 -30 49 -30 0 -30 -1 -30 -54 0 -30 5
-56 11 -58 6 -2 9 -27 7 -63 l-3 -60 -29 58 c-21 43 -25 62 -17 70 14 14 15
107 1 107 -6 0 -10 37 -10 90 0 81 2 90 19 90 13 0 29 -24 60 -92z m311 -5 c0
-56 -4 -75 -15 -79 -20 -8 -21 -102 -1 -110 10 -4 8 -18 -11 -67 -36 -89 -43
-91 -43 -10 0 40 5 75 10 78 6 3 10 28 10 56 0 48 -1 49 -30 49 -16 0 -30 2
-30 5 0 2 18 44 40 91 34 74 42 85 55 74 11 -9 15 -33 15 -87z m-1460 -118 c0
-14 -4 -25 -10 -25 -5 0 -10 11 -10 25 0 14 5 25 10 25 6 0 10 -11 10 -25z
m1350 -24 c0 -22 5 -43 10 -46 6 -3 10 -51 10 -108 0 -123 -20 -192 -54 -183
-12 3 -27 1 -35 -3 -7 -5 -22 -6 -32 -4 -18 5 -19 16 -19 152 1 129 2 144 15
127 8 -10 17 -24 20 -30 3 -7 7 -6 11 3 4 8 17 24 30 36 17 16 24 33 24 59 0
20 5 36 10 36 6 0 10 -18 10 -39z m-3869 -111 c13 0 11 -32 -5 -53 -19 -25
-46 -11 -46 24 0 16 5 29 10 29 6 0 10 17 10 38 0 56 14 62 18 8 2 -25 7 -46
13 -46z m69 45 c0 -25 5 -45 10 -45 6 0 10 -16 10 -35 0 -39 -6 -42 -38 -19
-22 15 -31 54 -12 54 6 0 10 20 10 45 0 25 5 45 10 45 6 0 10 -20 10 -45z m94
-47 c8 -4 11 -19 8 -37 -3 -25 -8 -29 -31 -28 -21 2 -27 8 -29 31 -2 16 2 32
9 36 7 5 12 23 11 41 -1 51 13 59 16 9 2 -25 9 -48 16 -52z m2996 -23 c0 -11
12 -15 50 -15 28 0 50 -4 50 -10 0 -5 -22 -10 -50 -10 -27 0 -50 -4 -50 -10 0
-5 -25 -10 -55 -10 -54 0 -55 1 -55 28 0 38 5 42 62 42 36 0 48 -4 48 -15z
m-4 -80 c4 -10 20 -15 50 -15 24 0 44 -4 44 -10 0 -5 -21 -10 -46 -10 -44 0
-45 -1 -42 -27 3 -25 7 -28 36 -27 21 1 32 -3 32 -12 0 -9 -12 -14 -35 -14
-32 0 -35 -2 -35 -30 0 -22 5 -30 18 -30 15 -1 15 -2 2 -13 -8 -7 -20 -21 -26
-32 -16 -31 -101 -83 -162 -101 -91 -27 -307 -7 -287 26 3 6 48 10 101 10 93
0 94 0 94 24 0 14 5 28 10 31 6 3 10 17 10 31 0 14 7 27 15 31 24 9 30 -4 15
-32 -12 -22 -12 -28 3 -42 16 -16 18 -16 34 -1 14 15 14 19 3 34 -23 26 -20
42 16 112 19 37 34 75 34 84 0 28 106 40 116 13z m-554 -62 c15 -14 25 -15 64
-6 44 10 45 10 60 -18 21 -41 64 -78 104 -89 35 -10 60 -44 60 -82 0 -16 -10
-18 -95 -18 -57 0 -95 4 -95 10 0 6 -20 10 -45 10 -57 0 -59 18 -2 22 38 3 42
6 45 31 3 26 2 27 -42 27 -26 0 -56 -6 -67 -12 -18 -11 -23 -10 -40 11 -11 13
-18 29 -16 35 5 16 46 19 63 5 8 -7 34 -12 57 -12 38 0 42 2 45 26 3 26 2 27
-47 27 -28 0 -51 -4 -51 -10 0 -17 -87 -12 -94 6 -10 27 -7 34 18 34 14 0 28
5 31 10 9 15 26 12 47 -7z m-2979 -161 c34 -51 -112 -112 -269 -112 -87 0
-199 26 -173 40 14 8 77 0 110 -14 9 -4 21 0 29 9 11 13 11 19 -4 33 -13 14
-20 14 -36 4 -24 -14 -130 -16 -130 -2 0 6 -13 10 -29 10 -17 0 -33 5 -36 10
-4 6 6 10 23 10 16 0 34 6 40 13 15 17 277 14 298 -4 12 -10 18 -9 32 5 13 13
14 20 5 36 -11 16 -8 21 25 41 20 13 51 34 67 47 l30 25 5 -69 c3 -38 9 -75
13 -82z m2790 142 c9 -10 -4 -34 -18 -34 -17 0 -28 17 -20 30 7 11 28 13 38 4z
m1138 -74 c16 -9 19 -22 19 -85 l0 -75 -62 0 c-34 0 -77 5 -95 12 -28 10 -33
17 -33 46 0 30 1 32 16 18 19 -20 28 -20 44 0 11 12 10 18 -4 32 -13 14 -20
14 -36 4 -18 -11 -20 -10 -20 16 0 16 3 32 7 35 10 11 142 8 164 -3z m-1273
-22 c-5 -15 -48 -24 -48 -10 0 14 12 22 33 22 10 0 17 -5 15 -12z m-2848 -8
c0 -5 -7 -10 -15 -10 -8 0 -15 5 -15 10 0 6 7 10 15 10 8 0 15 -4 15 -10z
m1558 -37 c-2 -27 -7 -48 -13 -48 -5 0 -11 21 -13 48 -3 38 0 47 13 47 13 0
16 -9 13 -47z m-588 8 c17 -1 20 -8 20 -51 l0 -50 -75 0 -75 0 0 48 c0 27 2
51 4 53 4 3 63 4 126 0z m1070 -46 c0 -52 -1 -55 -25 -55 -22 0 -25 3 -19 24
7 28 -17 41 -46 26 -10 -6 -39 -10 -64 -10 -46 0 -46 0 -46 35 l0 35 100 0
100 0 0 -55z m944 39 c8 -20 -21 -67 -34 -59 -11 7 -13 58 -3 68 12 12 31 7
37 -9z m181 6 c3 -5 1 -10 -4 -10 -6 0 -11 5 -11 10 0 6 2 10 4 10 3 0 8 -4
11 -10z m-1217 -87 c3 -9 -12 -13 -52 -13 -44 0 -56 3 -56 16 0 12 10 14 52
12 30 -2 53 -8 56 -15z m-388 -3 c0 -5 -4 -10 -10 -10 -5 0 -10 5 -10 10 0 6
5 10 10 10 6 0 10 -4 10 -10z"/>
<path d="M3098 4623 c7 -3 16 -2 19 1 4 3 -2 6 -13 5 -11 0 -14 -3 -6 -6z"/>
<path d="M2555 4309 c-9 -17 -15 -33 -13 -35 3 -2 12 12 21 31 21 43 13 47 -8
4z"/>
<path d="M2571 4153 c-6 -21 -10 -67 -10 -103 l2 -65 7 80 c4 44 10 90 14 103
4 12 5 22 2 22 -3 0 -10 -17 -15 -37z"/>
<path d="M3420 2670 c0 -36 4 -52 15 -56 12 -5 15 -28 15 -120 l0 -114 24 0
c14 0 28 -4 31 -10 10 -16 45 -12 52 6 9 25 -14 41 -37 26 -11 -6 -29 -12 -40
-12 -19 0 -20 6 -20 110 0 67 4 110 10 110 6 0 10 25 10 55 0 54 0 55 -30 55
-29 0 -30 -1 -30 -50z"/>
<path d="M1407 2934 c-11 -11 -8 -44 3 -44 6 0 10 -35 10 -85 0 -53 -4 -85
-11 -85 -6 0 -9 -21 -7 -52 3 -49 5 -53 31 -56 27 -3 27 -2 27 52 0 33 -4 56
-11 56 -10 0 -8 113 3 190 2 19 -2 26 -17 28 -12 2 -24 0 -28 -4z"/>
<path d="M1320 2665 c0 -30 5 -55 10 -55 6 0 10 -44 10 -113 l0 -113 49 -15
c56 -17 71 -15 71 12 0 25 -27 36 -51 21 -44 -28 -49 -19 -49 98 0 67 4 110
10 110 6 0 10 25 10 55 0 54 0 55 -30 55 -30 0 -30 -1 -30 -55z"/>
<path d="M1880 2673 c0 -29 6 -53 16 -65 13 -14 14 -21 5 -32 -14 -17 -11 -58
4 -63 6 -2 19 3 29 10 15 11 16 16 5 41 -10 21 -10 32 -1 47 7 10 12 39 12 64
0 45 0 45 -35 45 l-35 0 0 -47z"/>
<path d="M2860 2675 c0 -25 5 -54 12 -65 9 -15 9 -24 -1 -43 -16 -29 -8 -47
20 -47 23 0 36 27 20 43 -14 14 -15 57 -1 57 6 0 10 23 10 50 0 49 -1 50 -30
50 -29 0 -30 -2 -30 -45z"/>
<path d="M4960 2725 c0 -30 5 -55 10 -55 6 0 10 -32 10 -75 l0 -74 35 -7 c19
-3 38 -10 41 -15 7 -13 44 9 44 26 0 19 -38 29 -55 15 -8 -6 -22 -10 -31 -8
-15 3 -17 14 -15 73 1 39 7 72 12 73 5 2 9 26 9 53 0 48 -1 49 -30 49 -30 0
-30 -1 -30 -55z"/>
<path d="M5600 2730 c0 -34 5 -52 14 -56 20 -8 20 -250 0 -289 -13 -25 -13
-30 1 -44 13 -14 17 -14 32 2 15 14 15 21 5 37 -15 24 -17 286 -2 295 6 3 10
28 10 56 0 48 -1 49 -30 49 -29 0 -30 -1 -30 -50z"/>
<path d="M5680 2733 c0 -27 6 -53 15 -63 12 -13 12 -20 1 -41 -16 -30 -10 -49
14 -49 27 0 34 18 19 47 -10 19 -10 28 -1 43 7 11 12 40 12 65 0 43 -1 45 -30
45 -29 0 -30 -1 -30 -47z"/>
</g>
</svg>
